<svg id="visual" viewBox="0 0 900 600" width="900" height="600" xmlns="http://www.w3.org/2000/svg" xmlns:xlink="http://www.w3.org/1999/xlink" version="1.1"><g stroke-width="1" stroke-linejoin="bevel"><path d="M423 300L365 295L391 350Z" fill="#000000" stroke="#000000"></path><path d="M391 350L424 366L423 300Z" fill="#050e10" stroke="#050e10"></path><path d="M381 220L316 272L365 295Z" fill="#111718" stroke="#111718"></path><path d="M365 295L304 383L391 350Z" fill="#111718" stroke="#111718"></path><path d="M423 300L381 220L365 295Z" fill="#181e1f" stroke="#181e1f"></path><path d="M516 237L441 220L423 300Z" fill="#202526" stroke="#202526"></path><path d="M423 300L441 220L381 220Z" fill="#3e4546" stroke="#3e4546"></path><path d="M316 272L304 383L365 295Z" fill="#363d3e" stroke="#363d3e"></path><path d="M357 453L440 428L424 366Z" fill="#272d2e" stroke="#272d2e"></path><path d="M440 428L503 356L424 366Z" fill="#181e1f" stroke="#181e1f"></path><path d="M424 366L503 356L423 300Z" fill="#4f5557" stroke="#4f5557"></path><path d="M357 453L424 366L391 350Z" fill="#474d4e" stroke="#474d4e"></path><path d="M381 220L313 217L316 272Z" fill="#363d3e" stroke="#363d3e"></path><path d="M316 272L252 275L304 383Z" fill="#181e1f" stroke="#181e1f"></path><path d="M396 179L313 217L381 220Z" fill="#050e10" stroke="#050e10"></path><path d="M441 220L396 179L381 220Z" fill="#3e4546" stroke="#3e4546"></path><path d="M304 383L357 453L391 350Z" fill="#2f3536" stroke="#2f3536"></path><path d="M313 217L252 275L316 272Z" fill="#111718" stroke="#111718"></path><path d="M548 282L516 237L423 300Z" fill="#272d2e" stroke="#272d2e"></path><path d="M441 220L425 159L396 179Z" fill="#3e4546" stroke="#3e4546"></path><path d="M503 356L548 282L423 300Z" fill="#272d2e" stroke="#272d2e"></path><path d="M544 138L425 159L441 220Z" fill="#181e1f" stroke="#181e1f"></path><path d="M396 179L289 161L313 217Z" fill="#2f3536" stroke="#2f3536"></path><path d="M211 456L292 443L304 383Z" fill="#363d3e" stroke="#363d3e"></path><path d="M304 383L292 443L357 453Z" fill="#474d4e" stroke="#474d4e"></path><path d="M440 428L508 446L503 356Z" fill="#272d2e" stroke="#272d2e"></path><path d="M503 356L601 318L548 282Z" fill="#050e10" stroke="#050e10"></path><path d="M504 496L508 446L440 428Z" fill="#111718" stroke="#111718"></path><path d="M364 68L289 161L396 179Z" fill="#181e1f" stroke="#181e1f"></path><path d="M313 217L215 250L252 275Z" fill="#272d2e" stroke="#272d2e"></path><path d="M289 161L215 250L313 217Z" fill="#181e1f" stroke="#181e1f"></path><path d="M252 275L200 352L304 383Z" fill="#050e10" stroke="#050e10"></path><path d="M215 250L200 352L252 275Z" fill="#474d4e" stroke="#474d4e"></path><path d="M292 443L362 513L357 453Z" fill="#111718" stroke="#111718"></path><path d="M357 453L362 513L440 428Z" fill="#474d4e" stroke="#474d4e"></path><path d="M281 533L362 513L292 443Z" fill="#111718" stroke="#111718"></path><path d="M508 446L581 403L503 356Z" fill="#050e10" stroke="#050e10"></path><path d="M581 403L601 318L503 356Z" fill="#3e4546" stroke="#3e4546"></path><path d="M548 282L576 198L516 237Z" fill="#3e4546" stroke="#3e4546"></path><path d="M459 532L504 496L440 428Z" fill="#181e1f" stroke="#181e1f"></path><path d="M508 446L615 429L581 403Z" fill="#050e10" stroke="#050e10"></path><path d="M645 238L576 198L548 282Z" fill="#111718" stroke="#111718"></path><path d="M516 237L544 138L441 220Z" fill="#363d3e" stroke="#363d3e"></path><path d="M362 513L459 532L440 428Z" fill="#181e1f" stroke="#181e1f"></path><path d="M200 352L211 456L304 383Z" fill="#202526" stroke="#202526"></path><path d="M576 198L544 138L516 237Z" fill="#3e4546" stroke="#3e4546"></path><path d="M425 159L364 68L396 179Z" fill="#2f3536" stroke="#2f3536"></path><path d="M207 502L281 533L292 443Z" fill="#272d2e" stroke="#272d2e"></path><path d="M362 513L430 600L459 532Z" fill="#202526" stroke="#202526"></path><path d="M210 141L155 249L215 250Z" fill="#000000" stroke="#000000"></path><path d="M215 250L141 313L200 352Z" fill="#3e4546" stroke="#3e4546"></path><path d="M200 352L131 383L211 456Z" fill="#474d4e" stroke="#474d4e"></path><path d="M645 238L594 172L576 198Z" fill="#2f3536" stroke="#2f3536"></path><path d="M576 198L594 172L544 138Z" fill="#363d3e" stroke="#363d3e"></path><path d="M460 63L364 68L425 159Z" fill="#272d2e" stroke="#272d2e"></path><path d="M289 161L210 141L215 250Z" fill="#3e4546" stroke="#3e4546"></path><path d="M627 501L615 429L508 446Z" fill="#474d4e" stroke="#474d4e"></path><path d="M646 388L653 322L601 318Z" fill="#111718" stroke="#111718"></path><path d="M601 318L645 238L548 282Z" fill="#3e4546" stroke="#3e4546"></path><path d="M627 501L508 446L504 496Z" fill="#000000" stroke="#000000"></path><path d="M155 249L141 313L215 250Z" fill="#000000" stroke="#000000"></path><path d="M217 55L210 141L289 161Z" fill="#272d2e" stroke="#272d2e"></path><path d="M646 388L601 318L581 403Z" fill="#363d3e" stroke="#363d3e"></path><path d="M532 68L460 63L544 138Z" fill="#4f5557" stroke="#4f5557"></path><path d="M544 138L460 63L425 159Z" fill="#272d2e" stroke="#272d2e"></path><path d="M159 461L207 502L211 456Z" fill="#4f5557" stroke="#4f5557"></path><path d="M211 456L207 502L292 443Z" fill="#181e1f" stroke="#181e1f"></path><path d="M615 429L646 388L581 403Z" fill="#3e4546" stroke="#3e4546"></path><path d="M653 322L645 238L601 318Z" fill="#000000" stroke="#000000"></path><path d="M141 313L131 383L200 352Z" fill="#2f3536" stroke="#2f3536"></path><path d="M349 0L319 54L364 68Z" fill="#3e4546" stroke="#3e4546"></path><path d="M364 68L319 54L289 161Z" fill="#4f5557" stroke="#4f5557"></path><path d="M131 383L159 461L211 456Z" fill="#050e10" stroke="#050e10"></path><path d="M586 61L532 68L544 138Z" fill="#111718" stroke="#111718"></path><path d="M586 61L544 138L594 172Z" fill="#000000" stroke="#000000"></path><path d="M347 600L430 600L362 513Z" fill="#474d4e" stroke="#474d4e"></path><path d="M545 600L627 501L504 496Z" fill="#050e10" stroke="#050e10"></path><path d="M347 600L362 513L281 533Z" fill="#181e1f" stroke="#181e1f"></path><path d="M290 600L347 600L281 533Z" fill="#363d3e" stroke="#363d3e"></path><path d="M545 600L504 496L459 532Z" fill="#363d3e" stroke="#363d3e"></path><path d="M615 429L674 453L646 388Z" fill="#363d3e" stroke="#363d3e"></path><path d="M239 600L290 600L281 533Z" fill="#363d3e" stroke="#363d3e"></path><path d="M239 600L281 533L207 502Z" fill="#000000" stroke="#000000"></path><path d="M176 85L133 158L210 141Z" fill="#202526" stroke="#202526"></path><path d="M210 141L133 158L155 249Z" fill="#4f5557" stroke="#4f5557"></path><path d="M59 271L75 357L141 313Z" fill="#111718" stroke="#111718"></path><path d="M141 313L75 357L131 383Z" fill="#202526" stroke="#202526"></path><path d="M627 501L674 453L615 429Z" fill="#000000" stroke="#000000"></path><path d="M750 375L737 287L653 322Z" fill="#272d2e" stroke="#272d2e"></path><path d="M653 322L737 287L645 238Z" fill="#474d4e" stroke="#474d4e"></path><path d="M319 54L217 55L289 161Z" fill="#000000" stroke="#000000"></path><path d="M217 55L176 85L210 141Z" fill="#474d4e" stroke="#474d4e"></path><path d="M439 0L349 0L364 68Z" fill="#272d2e" stroke="#272d2e"></path><path d="M319 54L310 0L217 55Z" fill="#363d3e" stroke="#363d3e"></path><path d="M439 0L364 68L460 63Z" fill="#050e10" stroke="#050e10"></path><path d="M551 0L439 0L460 63Z" fill="#050e10" stroke="#050e10"></path><path d="M655 54L586 61L594 172Z" fill="#000000" stroke="#000000"></path><path d="M532 68L551 0L460 63Z" fill="#202526" stroke="#202526"></path><path d="M59 271L141 313L155 249Z" fill="#111718" stroke="#111718"></path><path d="M131 383L94 447L159 461Z" fill="#202526" stroke="#202526"></path><path d="M430 600L545 600L459 532Z" fill="#2f3536" stroke="#2f3536"></path><path d="M627 501L699 528L674 453Z" fill="#050e10" stroke="#050e10"></path><path d="M121 533L207 502L159 461Z" fill="#202526" stroke="#202526"></path><path d="M170 600L239 600L207 502Z" fill="#181e1f" stroke="#181e1f"></path><path d="M75 357L94 447L131 383Z" fill="#000000" stroke="#000000"></path><path d="M349 0L310 0L319 54Z" fill="#202526" stroke="#202526"></path><path d="M82 97L97 165L133 158Z" fill="#111718" stroke="#111718"></path><path d="M133 158L97 165L155 249Z" fill="#2f3536" stroke="#2f3536"></path><path d="M50 198L59 271L155 249Z" fill="#2f3536" stroke="#2f3536"></path><path d="M750 375L653 322L646 388Z" fill="#474d4e" stroke="#474d4e"></path><path d="M645 238L698 133L594 172Z" fill="#272d2e" stroke="#272d2e"></path><path d="M737 287L722 207L645 238Z" fill="#474d4e" stroke="#474d4e"></path><path d="M94 447L121 533L159 461Z" fill="#363d3e" stroke="#363d3e"></path><path d="M601 0L551 0L586 61Z" fill="#4f5557" stroke="#4f5557"></path><path d="M586 61L551 0L532 68Z" fill="#000000" stroke="#000000"></path><path d="M722 207L698 133L645 238Z" fill="#474d4e" stroke="#474d4e"></path><path d="M121 533L170 600L207 502Z" fill="#202526" stroke="#202526"></path><path d="M0 139L50 198L97 165Z" fill="#474d4e" stroke="#474d4e"></path><path d="M97 165L50 198L155 249Z" fill="#050e10" stroke="#050e10"></path><path d="M674 453L750 375L646 388Z" fill="#000000" stroke="#000000"></path><path d="M760 469L750 375L674 453Z" fill="#272d2e" stroke="#272d2e"></path><path d="M217 55L136 0L176 85Z" fill="#272d2e" stroke="#272d2e"></path><path d="M176 85L82 97L133 158Z" fill="#4f5557" stroke="#4f5557"></path><path d="M310 0L214 0L217 55Z" fill="#000000" stroke="#000000"></path><path d="M545 600L624 600L627 501Z" fill="#2f3536" stroke="#2f3536"></path><path d="M795 167L726 155L722 207Z" fill="#3e4546" stroke="#3e4546"></path><path d="M722 207L726 155L698 133Z" fill="#474d4e" stroke="#474d4e"></path><path d="M698 133L655 54L594 172Z" fill="#202526" stroke="#202526"></path><path d="M807 277L722 207L737 287Z" fill="#363d3e" stroke="#363d3e"></path><path d="M720 56L655 54L698 133Z" fill="#111718" stroke="#111718"></path><path d="M624 600L699 528L627 501Z" fill="#4f5557" stroke="#4f5557"></path><path d="M655 54L601 0L586 61Z" fill="#4f5557" stroke="#4f5557"></path><path d="M136 0L82 97L176 85Z" fill="#111718" stroke="#111718"></path><path d="M94 447L59 525L121 533Z" fill="#050e10" stroke="#050e10"></path><path d="M121 533L59 600L170 600Z" fill="#4f5557" stroke="#4f5557"></path><path d="M0 469L59 525L94 447Z" fill="#3e4546" stroke="#3e4546"></path><path d="M0 390L94 447L75 357Z" fill="#202526" stroke="#202526"></path><path d="M0 276L75 357L59 271Z" fill="#474d4e" stroke="#474d4e"></path><path d="M0 243L59 271L50 198Z" fill="#000000" stroke="#000000"></path><path d="M0 243L0 276L59 271Z" fill="#474d4e" stroke="#474d4e"></path><path d="M699 528L760 469L674 453Z" fill="#3e4546" stroke="#3e4546"></path><path d="M0 139L0 243L50 198Z" fill="#4f5557" stroke="#4f5557"></path><path d="M0 276L0 390L75 357Z" fill="#474d4e" stroke="#474d4e"></path><path d="M624 600L679 600L699 528Z" fill="#272d2e" stroke="#272d2e"></path><path d="M699 528L766 523L760 469Z" fill="#363d3e" stroke="#363d3e"></path><path d="M214 0L136 0L217 55Z" fill="#3e4546" stroke="#3e4546"></path><path d="M82 97L0 139L97 165Z" fill="#111718" stroke="#111718"></path><path d="M817 392L807 277L750 375Z" fill="#000000" stroke="#000000"></path><path d="M750 375L807 277L737 287Z" fill="#272d2e" stroke="#272d2e"></path><path d="M726 155L720 56L698 133Z" fill="#000000" stroke="#000000"></path><path d="M655 54L675 0L601 0Z" fill="#111718" stroke="#111718"></path><path d="M795 167L720 56L726 155Z" fill="#000000" stroke="#000000"></path><path d="M0 390L0 469L94 447Z" fill="#111718" stroke="#111718"></path><path d="M720 56L675 0L655 54Z" fill="#363d3e" stroke="#363d3e"></path><path d="M738 600L766 523L699 528Z" fill="#000000" stroke="#000000"></path><path d="M760 469L817 392L750 375Z" fill="#272d2e" stroke="#272d2e"></path><path d="M823 233L795 167L722 207Z" fill="#3e4546" stroke="#3e4546"></path><path d="M0 51L0 139L82 97Z" fill="#474d4e" stroke="#474d4e"></path><path d="M854 468L817 392L760 469Z" fill="#4f5557" stroke="#4f5557"></path><path d="M136 0L92 0L82 97Z" fill="#181e1f" stroke="#181e1f"></path><path d="M0 525L59 600L59 525Z" fill="#4f5557" stroke="#4f5557"></path><path d="M59 525L59 600L121 533Z" fill="#474d4e" stroke="#474d4e"></path><path d="M900 240L823 233L807 277Z" fill="#111718" stroke="#111718"></path><path d="M807 277L823 233L722 207Z" fill="#2f3536" stroke="#2f3536"></path><path d="M0 469L0 525L59 525Z" fill="#272d2e" stroke="#272d2e"></path><path d="M679 600L738 600L699 528Z" fill="#272d2e" stroke="#272d2e"></path><path d="M838 511L854 468L760 469Z" fill="#4f5557" stroke="#4f5557"></path><path d="M92 0L0 51L82 97Z" fill="#2f3536" stroke="#2f3536"></path><path d="M0 525L0 600L59 600Z" fill="#3e4546" stroke="#3e4546"></path><path d="M838 511L760 469L766 523Z" fill="#181e1f" stroke="#181e1f"></path><path d="M817 392L900 314L807 277Z" fill="#000000" stroke="#000000"></path><path d="M852 600L838 511L766 523Z" fill="#000000" stroke="#000000"></path><path d="M837 67L720 56L795 167Z" fill="#111718" stroke="#111718"></path><path d="M837 67L775 0L720 56Z" fill="#3e4546" stroke="#3e4546"></path><path d="M720 56L775 0L675 0Z" fill="#3e4546" stroke="#3e4546"></path><path d="M92 0L0 0L0 51Z" fill="#363d3e" stroke="#363d3e"></path><path d="M900 400L900 314L817 392Z" fill="#000000" stroke="#000000"></path><path d="M900 121L837 67L795 167Z" fill="#202526" stroke="#202526"></path><path d="M900 121L795 167L823 233Z" fill="#474d4e" stroke="#474d4e"></path><path d="M900 314L900 240L807 277Z" fill="#111718" stroke="#111718"></path><path d="M854 468L900 400L817 392Z" fill="#3e4546" stroke="#3e4546"></path><path d="M900 451L900 400L854 468Z" fill="#202526" stroke="#202526"></path><path d="M900 533L900 451L854 468Z" fill="#363d3e" stroke="#363d3e"></path><path d="M738 600L852 600L766 523Z" fill="#3e4546" stroke="#3e4546"></path><path d="M838 511L900 533L854 468Z" fill="#111718" stroke="#111718"></path><path d="M900 240L900 121L823 233Z" fill="#050e10" stroke="#050e10"></path><path d="M837 67L841 0L775 0Z" fill="#000000" stroke="#000000"></path><path d="M900 68L841 0L837 67Z" fill="#181e1f" stroke="#181e1f"></path><path d="M852 600L900 533L838 511Z" fill="#363d3e" stroke="#363d3e"></path><path d="M900 121L900 68L837 67Z" fill="#3e4546" stroke="#3e4546"></path><path d="M852 600L900 600L900 533Z" fill="#474d4e" stroke="#474d4e"></path><path d="M900 68L900 0L841 0Z" fill="#202526" stroke="#202526"></path></g></svg>